<?xml version="1.0" encoding="UTF-8" standalone="no"?>
<!DOCTYPE svg PUBLIC "-//W3C//DTD SVG 1.1//EN" "http://www.w3.org/Graphics/SVG/1.1/DTD/svg11.dtd">
<svg width="100%" height="100%" viewBox="0 0 187 175" version="1.1" xmlns="http://www.w3.org/2000/svg" xmlns:xlink="http://www.w3.org/1999/xlink" xml:space="preserve" xmlns:serif="http://www.serif.com/" style="fill-rule:evenodd;clip-rule:evenodd;stroke-linejoin:round;stroke-miterlimit:2;">
    <g transform="matrix(1,0,0,1,-6031.86,-1628.77)">
        <g transform="matrix(2,0,0,2.20454,3685.03,2936.44)">
            <g transform="matrix(0.536127,0,0,0.486385,-4094.68,-1852.39)">
                <g transform="matrix(1,0,0,1,0.655647,-0.00563843)">
                    <path d="M9999.61,2605.4C9999.61,2596.31 9992.23,2588.93 9983.14,2588.93L9842.03,2588.93C9832.93,2588.93 9825.55,2596.31 9825.55,2605.4L9825.55,2735.08C9825.55,2744.17 9832.93,2751.55 9842.03,2751.55L9983.14,2751.55C9992.23,2751.55 9999.61,2744.17 9999.61,2735.08L9999.61,2605.4Z" style="fill:rgb(81,100,219);"/>
                </g>
                <g transform="matrix(0.207774,0,0,0.207774,7904.7,2115.6)">
                    <path d="M9999.61,2605.4C9999.61,2596.31 9992.23,2588.93 9983.14,2588.93L9842.03,2588.93C9832.93,2588.93 9825.55,2596.31 9825.55,2605.4L9825.55,2735.08C9825.55,2744.17 9832.93,2751.55 9842.03,2751.55L9983.14,2751.55C9992.23,2751.55 9999.61,2744.17 9999.61,2735.08L9999.61,2605.4Z" style="fill:rgb(126,238,229);"/>
                </g>
                <g transform="matrix(0.207774,0,0,0.207774,7853.66,2165.27)">
                    <path d="M9999.61,2605.4C9999.61,2596.31 9992.23,2588.93 9983.14,2588.93L9842.03,2588.93C9832.93,2588.93 9825.55,2596.31 9825.55,2605.4L9825.55,2735.08C9825.55,2744.17 9832.93,2751.55 9842.03,2751.55L9983.14,2751.55C9992.23,2751.55 9999.61,2744.17 9999.61,2735.08L9999.61,2605.4Z" style="fill:rgb(126,238,229);"/>
                </g>
                <g transform="matrix(0.207774,0,0,0.207774,7904.7,2065.76)">
                    <path d="M9999.61,2605.4C9999.61,2596.31 9992.23,2588.93 9983.14,2588.93L9842.03,2588.93C9832.93,2588.93 9825.55,2596.31 9825.55,2605.4L9825.55,2735.08C9825.55,2744.17 9832.93,2751.55 9842.03,2751.55L9983.14,2751.55C9992.23,2751.55 9999.61,2744.17 9999.61,2735.08L9999.61,2605.4Z" style="fill:rgb(175,201,255);"/>
                </g>
                <g transform="matrix(0.207774,0,0,0.207774,7853.66,2115.6)">
                    <path d="M9999.61,2605.4C9999.61,2596.31 9992.23,2588.93 9983.14,2588.93L9842.03,2588.93C9832.93,2588.93 9825.55,2596.31 9825.55,2605.4L9825.55,2735.08C9825.55,2744.17 9832.93,2751.55 9842.03,2751.55L9983.14,2751.55C9992.23,2751.55 9999.61,2744.17 9999.61,2735.08L9999.61,2605.4Z" style="fill:rgb(175,201,255);"/>
                </g>
                <g transform="matrix(0.207774,0,0,0.207774,7853.66,2065.76)">
                    <path d="M9999.61,2605.4C9999.61,2596.31 9992.23,2588.93 9983.14,2588.93L9842.03,2588.93C9832.93,2588.93 9825.55,2596.31 9825.55,2605.4L9825.55,2735.08C9825.55,2744.17 9832.93,2751.55 9842.03,2751.55L9983.14,2751.55C9992.23,2751.55 9999.61,2744.17 9999.61,2735.08L9999.61,2605.4Z" style="fill:rgb(135,229,244);"/>
                </g>
                <g transform="matrix(0.207774,0,0,0.207774,7805.09,2165.27)">
                    <path d="M9999.61,2605.4C9999.61,2596.31 9992.23,2588.93 9983.14,2588.93L9842.03,2588.93C9832.93,2588.93 9825.55,2596.31 9825.55,2605.4L9825.55,2735.08C9825.55,2744.17 9832.93,2751.55 9842.03,2751.55L9983.14,2751.55C9992.23,2751.55 9999.61,2744.17 9999.61,2735.08L9999.61,2605.4Z" style="fill:rgb(175,201,255);"/>
                </g>
                <g transform="matrix(0.207774,0,0,0.207774,7904.7,2165.27)">
                    <path d="M9999.61,2605.4C9999.61,2596.31 9992.23,2588.93 9983.14,2588.93L9842.03,2588.93C9832.93,2588.93 9825.55,2596.31 9825.55,2605.4L9825.55,2735.08C9825.55,2744.17 9832.93,2751.55 9842.03,2751.55L9983.14,2751.55C9992.23,2751.55 9999.61,2744.17 9999.61,2735.08L9999.61,2605.4Z" style="fill:rgb(156,160,255);"/>
                </g>
                <g transform="matrix(0.207774,0,0,0.207774,7805.09,2115.43)">
                    <path d="M9999.61,2605.4C9999.61,2596.31 9992.23,2588.93 9983.14,2588.93L9842.03,2588.93C9832.93,2588.93 9825.55,2596.31 9825.55,2605.4L9825.55,2735.08C9825.55,2744.17 9832.93,2751.55 9842.03,2751.55L9983.14,2751.55C9992.23,2751.55 9999.61,2744.17 9999.61,2735.08L9999.61,2605.4Z" style="fill:rgb(156,160,255);"/>
                </g>
                <g transform="matrix(0.207774,0,0,0.207774,7803.27,2065.15)">
                    <path d="M9999.61,2605.4C9999.61,2596.31 9992.23,2588.93 9983.14,2588.93L9842.03,2588.93C9832.93,2588.93 9825.55,2596.31 9825.55,2605.4L9825.55,2735.08C9825.55,2744.17 9832.93,2751.55 9842.03,2751.55L9983.14,2751.55C9992.23,2751.55 9999.61,2744.17 9999.61,2735.08L9999.61,2605.4Z" style="fill:rgb(126,238,229);"/>
                </g>
            </g>
        </g>
    </g>
</svg>
