<?xml version="1.0" encoding="UTF-8" standalone="no"?>
<!DOCTYPE svg PUBLIC "-//W3C//DTD SVG 1.1//EN" "http://www.w3.org/Graphics/SVG/1.1/DTD/svg11.dtd">
<svg width="100%" height="100%" viewBox="0 0 182 182" version="1.1" xmlns="http://www.w3.org/2000/svg" xmlns:xlink="http://www.w3.org/1999/xlink" xml:space="preserve" xmlns:serif="http://www.serif.com/" style="fill-rule:evenodd;clip-rule:evenodd;stroke-linejoin:round;stroke-miterlimit:2;">
    <g transform="matrix(1,0,0,1,-6034.37,-3058.34)">
        <g transform="matrix(2,0,0,2.20454,3685.03,2936.44)">
            <g transform="matrix(1,0,0,0.894294,-717.143,-195.681)">
                <g transform="matrix(0.549411,0,0,0.557351,-4410.8,-1604.17)">
                    <circle cx="11554.2" cy="3464.39" r="82.65" style="fill:rgb(39,60,159);"/>
                </g>
                <g transform="matrix(0.686078,-0.0639994,-1.26203e-18,0.594796,-5974.06,-964.211)">
                    <path d="M11564.8,3376.77C11564.8,3365.63 11557.2,3356.59 11547.7,3356.59L11513.5,3356.59C11504.1,3356.59 11496.4,3365.63 11496.4,3376.77L11496.4,3442.3C11496.4,3453.44 11504.1,3462.48 11513.5,3462.48L11547.7,3462.48C11557.2,3462.48 11564.8,3453.44 11564.8,3442.3L11564.8,3376.77Z" style="fill:rgb(178,193,204);"/>
                </g>
                <g transform="matrix(0.550506,-0.0513528,0,0.551597,-4407.32,-960.739)">
                    <path d="M11564.8,3374.05C11564.8,3364.41 11557.2,3356.59 11547.7,3356.59L11513.5,3356.59C11504.1,3356.59 11496.4,3364.41 11496.4,3374.05L11496.4,3445.02C11496.4,3454.66 11504.1,3462.48 11513.5,3462.48L11547.7,3462.48C11557.2,3462.48 11564.8,3454.66 11564.8,3445.02L11564.8,3374.05Z" style="fill:rgb(210,228,242);"/>
                </g>
                <g transform="matrix(0.82277,-0.051007,0,0.825387,-7547.61,-1902.55)">
                    <circle cx="11530.8" cy="3428.9" r="17.554" style="fill:rgb(193,217,235);"/>
                </g>
                <g transform="matrix(0.730127,-0.0452638,0,0.73245,-6479.37,-1650.11)">
                    <circle cx="11530.8" cy="3428.9" r="17.554" style="fill:rgb(210,228,242);"/>
                </g>
                <g transform="matrix(0.62106,-0.0385022,0,0.623036,-5221.73,-1352.9)">
                    <circle cx="11530.8" cy="3428.9" r="17.554" style="fill:rgb(113,44,220);"/>
                </g>
                <g transform="matrix(0.628478,-0.0389621,0,0.630477,-5307.26,-1401.26)">
                    <circle cx="11530.8" cy="3428.9" r="17.554" style="fill:rgb(193,217,235);"/>
                </g>
                <g transform="matrix(0.553731,-0.0343282,0,0.555492,-4445.36,-1197.58)">
                    <circle cx="11530.8" cy="3428.9" r="17.554" style="fill:rgb(210,228,242);"/>
                </g>
                <g transform="matrix(0.425426,-0.026374,0,0.426779,-2965.9,-847.951)">
                    <circle cx="11530.8" cy="3428.9" r="17.554" style="fill:rgb(113,44,220);"/>
                </g>
            </g>
        </g>
    </g>
</svg>
