<?xml version="1.0" encoding="UTF-8" standalone="no"?>
<!DOCTYPE svg PUBLIC "-//W3C//DTD SVG 1.1//EN" "http://www.w3.org/Graphics/SVG/1.1/DTD/svg11.dtd">
<svg width="100%" height="100%" viewBox="0 0 187 175" version="1.1" xmlns="http://www.w3.org/2000/svg" xmlns:xlink="http://www.w3.org/1999/xlink" xml:space="preserve" xmlns:serif="http://www.serif.com/" style="fill-rule:evenodd;clip-rule:evenodd;stroke-linejoin:round;stroke-miterlimit:2;">
    <g transform="matrix(1,0,0,1,-7178.43,-1628.77)">
        <g transform="matrix(2,0,0,2.20454,3685.03,2936.44)">
            <g transform="matrix(1,0,0,0.894294,224.236,-282.465)">
                <g transform="matrix(0.536127,0,0,0.543875,-4241.38,-1756.51)">
                    <g transform="matrix(1,0,0,1,925.333,1.88149)">
                        <path d="M9999.61,2614.88L9825.55,2614.86L9825.55,2725.62C9825.55,2739.93 9837.17,2751.55 9851.48,2751.55L9973.68,2751.55C9988,2751.55 9999.61,2739.93 9999.61,2725.62L9999.61,2614.88Z" style="fill:rgb(195,220,238);"/>
                    </g>
                    <g transform="matrix(1,0,0,1,925.333,1.88149)">
                        <path d="M9999.61,2614.86C9999.61,2600.55 9988,2588.93 9973.68,2588.93L9851.48,2588.93C9837.17,2588.93 9825.55,2600.55 9825.55,2614.86L9999.61,2614.86Z" style="fill:rgb(231,57,101);"/>
                    </g>
                </g>
                <g transform="matrix(1.1039,0,0,1.11985,-10253.4,-3284.32)">
                    <path d="M10680.1,2663.64C10680,2663.38 10680,2663 10679.9,2662.52C10679.8,2662.04 10679.8,2661.58 10679.8,2661.13C10679.8,2659.53 10680.1,2658.01 10680.7,2656.56C10681.3,2655.12 10682.2,2653.84 10683.3,2652.72C10684.4,2651.61 10685.8,2650.72 10687.4,2650.05C10689,2649.38 10690.9,2649.05 10693,2649.05C10695,2649.05 10696.8,2649.36 10698.4,2649.99C10700.1,2650.63 10701.4,2651.47 10702.6,2652.53C10703.7,2653.59 10704.6,2654.82 10705.1,2656.23C10705.7,2657.64 10706,2659.13 10706,2660.68C10706,2663.02 10705.4,2665.13 10704.2,2667C10703,2668.88 10701.3,2670.5 10699,2671.88L10692.1,2676.11C10691.4,2676.55 10690.7,2677.03 10690.2,2677.55C10689.7,2678.07 10689.2,2678.69 10688.9,2679.39L10706.3,2679.39L10706.3,2686.02L10679.5,2686.02C10679.5,2684.42 10679.7,2682.91 10680,2681.48C10680.3,2680.05 10680.8,2678.69 10681.4,2677.39C10682.1,2676.09 10682.9,2674.87 10684,2673.74C10685.1,2672.61 10686.4,2671.56 10688.1,2670.6L10694,2667.03C10695.6,2666.1 10696.7,2665.15 10697.3,2664.16C10698,2663.18 10698.3,2662.06 10698.3,2660.8C10698.3,2659.5 10697.8,2658.35 10696.9,2657.34C10696,2656.34 10694.7,2655.84 10692.8,2655.84C10690.9,2655.84 10689.5,2656.42 10688.5,2657.57C10687.6,2658.72 10687.1,2660.15 10687.1,2661.85C10687.1,2662.52 10687.2,2663.19 10687.4,2663.86L10680.1,2663.64Z" style="fill:rgb(41,67,186);fill-rule:nonzero;"/>
                    <path d="M10725,2664.69C10726.7,2664.69 10728,2664.23 10728.9,2663.3C10729.9,2662.37 10730.3,2661.26 10730.3,2659.96C10730.3,2658.77 10729.9,2657.72 10728.9,2656.79C10728,2655.86 10726.7,2655.39 10725,2655.39C10723.3,2655.39 10722,2655.86 10721.1,2656.79C10720.1,2657.72 10719.7,2658.77 10719.7,2659.96C10719.7,2661.26 10720.1,2662.37 10721.1,2663.3C10722,2664.23 10723.3,2664.69 10725,2664.69ZM10725,2680.51C10726,2680.51 10726.9,2680.37 10727.6,2680.09C10728.4,2679.81 10729,2679.44 10729.5,2678.97C10730.1,2678.51 10730.4,2677.97 10730.7,2677.36C10731,2676.75 10731.1,2676.12 10731.1,2675.49C10731.1,2674.83 10731,2674.19 10730.7,2673.57C10730.4,2672.96 10730.1,2672.42 10729.6,2671.96C10729.1,2671.49 10728.4,2671.11 10727.6,2670.82C10726.9,2670.52 10726,2670.37 10725,2670.37C10724,2670.37 10723.1,2670.52 10722.3,2670.82C10721.6,2671.11 10720.9,2671.49 10720.4,2671.96C10719.9,2672.42 10719.6,2672.96 10719.3,2673.57C10719,2674.19 10718.9,2674.83 10718.9,2675.49C10718.9,2676.12 10719,2676.75 10719.3,2677.36C10719.6,2677.97 10719.9,2678.51 10720.5,2678.97C10721,2679.44 10721.6,2679.81 10722.4,2680.09C10723.1,2680.37 10724,2680.51 10725,2680.51ZM10725,2686.85C10722.9,2686.85 10721,2686.59 10719.3,2686.07C10717.7,2685.55 10716.2,2684.83 10715.1,2683.9C10713.9,2682.97 10713,2681.86 10712.3,2680.56C10711.7,2679.26 10711.3,2677.83 10711.3,2676.27C10711.3,2674.31 10711.9,2672.53 10713.1,2670.96C10714.3,2669.38 10715.8,2668.22 10717.7,2667.48C10716.8,2667.14 10716,2666.69 10715.3,2666.11C10714.6,2665.54 10714,2664.89 10713.6,2664.16C10713.1,2663.44 10712.7,2662.67 10712.4,2661.85C10712.2,2661.04 10712.1,2660.22 10712.1,2659.4C10712.1,2657.88 10712.4,2656.49 10713,2655.23C10713.7,2653.97 10714.6,2652.87 10715.7,2651.94C10716.8,2651.01 10718.2,2650.3 10719.8,2649.8C10721.3,2649.3 10723.1,2649.05 10725,2649.05C10726.9,2649.05 10728.6,2649.3 10730.2,2649.8C10731.8,2650.3 10733.1,2651.01 10734.2,2651.94C10735.4,2652.87 10736.3,2653.97 10736.9,2655.23C10737.6,2656.49 10737.9,2657.88 10737.9,2659.4C10737.9,2660.18 10737.8,2660.98 10737.5,2661.8C10737.3,2662.61 10736.9,2663.39 10736.4,2664.11C10736,2664.83 10735.4,2665.49 10734.7,2666.09C10734,2666.68 10733.2,2667.14 10732.3,2667.48C10734.2,2668.18 10735.7,2669.33 10736.9,2670.93C10738,2672.53 10738.6,2674.31 10738.6,2676.27C10738.6,2677.83 10738.3,2679.26 10737.6,2680.56C10737,2681.86 10736.1,2682.97 10734.9,2683.9C10733.7,2684.83 10732.3,2685.55 10730.6,2686.07C10728.9,2686.59 10727,2686.85 10725,2686.85Z" style="fill:rgb(41,67,186);fill-rule:nonzero;"/>
                </g>
            </g>
        </g>
    </g>
</svg>
