<?xml version="1.0" encoding="UTF-8" standalone="no"?>
<!DOCTYPE svg PUBLIC "-//W3C//DTD SVG 1.1//EN" "http://www.w3.org/Graphics/SVG/1.1/DTD/svg11.dtd">
<svg width="100%" height="100%" viewBox="0 0 152 152" version="1.1" xmlns="http://www.w3.org/2000/svg" xmlns:xlink="http://www.w3.org/1999/xlink" xml:space="preserve" xmlns:serif="http://www.serif.com/" style="fill-rule:evenodd;clip-rule:evenodd;stroke-linejoin:round;stroke-miterlimit:2;">
    <g transform="matrix(1,0,0,1,-6909.28,-4027.03)">
        <g transform="matrix(2,0,0,2.20454,3685.03,2936.44)">
            <g transform="matrix(0.536127,0,0,0.486385,-3908.96,-1261.99)">
                <g transform="matrix(0.868179,1.07854,-0.39136,0.315028,2818.91,-8649.94)">
                    <path d="M10373.8,3719.05C10373.8,3709.2 10370.9,3701.22 10367.4,3701.22L10344.6,3701.22C10341.1,3701.22 10338.2,3709.2 10338.2,3719.05C10338.2,3728.89 10341.1,3736.88 10344.6,3736.88L10367.4,3736.88C10370.9,3736.88 10373.8,3728.89 10373.8,3719.05Z" style="fill:white;"/>
                </g>
                <g transform="matrix(1.0631,-1.67026,0.423832,0.269763,-2206.88,19975)">
                    <path d="M10373.8,3719.05C10373.8,3709.2 10371.8,3701.22 10369.3,3701.22L10342.7,3701.22C10340.2,3701.22 10338.2,3709.2 10338.2,3719.05C10338.2,3728.89 10340.2,3736.88 10342.7,3736.88L10369.3,3736.88C10371.8,3736.88 10373.8,3728.89 10373.8,3719.05Z" style="fill:white;"/>
                </g>
                <g transform="matrix(1,0,0,1,0.655647,-16.8314)">
                    <path d="M10368.2,3628.56C10407.2,3628.56 10438.9,3660.25 10438.9,3699.28C10438.9,3738.31 10407.2,3770 10368.2,3770C10329.1,3770 10297.4,3738.31 10297.4,3699.28C10297.4,3660.25 10329.1,3628.56 10368.2,3628.56ZM10368.2,3648.3C10396.3,3648.3 10419.1,3671.14 10419.1,3699.28C10419.1,3727.42 10396.3,3750.27 10368.2,3750.27C10340,3750.27 10317.2,3727.42 10317.2,3699.28C10317.2,3671.14 10340,3648.3 10368.2,3648.3Z" style="fill:white;"/>
                </g>
            </g>
        </g>
    </g>
</svg>
