<?xml version="1.0" encoding="UTF-8" standalone="no"?>
<!DOCTYPE svg PUBLIC "-//W3C//DTD SVG 1.1//EN" "http://www.w3.org/Graphics/SVG/1.1/DTD/svg11.dtd">
<svg width="100%" height="100%" viewBox="0 0 181 181" version="1.1" xmlns="http://www.w3.org/2000/svg" xmlns:xlink="http://www.w3.org/1999/xlink" xml:space="preserve" xmlns:serif="http://www.serif.com/" style="fill-rule:evenodd;clip-rule:evenodd;stroke-linejoin:round;stroke-miterlimit:2;">
    <g transform="matrix(1,0,0,1,-6321.38,-2772.89)">
        <g transform="matrix(2,0,0,2.20454,3685.03,2936.44)">
            <g transform="matrix(0.536127,0,0,0.486385,-4570.1,-1569.04)">
                <g transform="matrix(0.963173,0,0,0.963173,373.453,80.5753)">
                    <circle cx="11102.8" cy="3194.83" r="87.574" style="fill:rgb(184,200,212);"/>
                </g>
                <g transform="matrix(4.34022e-17,0.708811,-0.662651,4.05756e-17,13172.7,-4854.02)">
                    <path d="M11305.3,3177.21C11305.3,3169.63 11299.5,3163.48 11292.4,3163.48L11223.8,3163.48C11216.8,3163.48 11211,3169.63 11211,3177.21C11211,3184.79 11216.8,3190.94 11223.8,3190.94L11292.4,3190.94C11299.5,3190.94 11305.3,3184.79 11305.3,3177.21Z" style="fill:rgb(45,70,185);"/>
                </g>
                <g transform="matrix(0.407007,0.348263,-0.430819,0.503488,7873.06,-2346.83)">
                    <path d="M11305.3,3177.21C11305.3,3169.63 11297.7,3163.48 11288.3,3163.48L11228,3163.48C11218.6,3163.48 11211,3169.63 11211,3177.21C11211,3184.79 11218.6,3190.94 11228,3190.94L11288.3,3190.94C11297.7,3190.94 11305.3,3184.79 11305.3,3177.21Z" style="fill:rgb(45,70,185);"/>
                </g>
                <g transform="matrix(0.143684,0,0,0.143684,9472.05,2698.7)">
                    <circle cx="11102.8" cy="3194.83" r="87.574" style="fill:rgb(246,135,135);"/>
                </g>
            </g>
        </g>
    </g>
</svg>
