<?xml version="1.0" encoding="UTF-8" standalone="no"?>
<!DOCTYPE svg PUBLIC "-//W3C//DTD SVG 1.1//EN" "http://www.w3.org/Graphics/SVG/1.1/DTD/svg11.dtd">
<svg width="100%" height="100%" viewBox="0 0 119 119" version="1.1" xmlns="http://www.w3.org/2000/svg" xmlns:xlink="http://www.w3.org/1999/xlink" xml:space="preserve" xmlns:serif="http://www.serif.com/" style="fill-rule:evenodd;clip-rule:evenodd;stroke-linejoin:round;stroke-miterlimit:2;">
    <g transform="matrix(1,0,0,1,-6066.09,-4043.77)">
        <g transform="matrix(2,0,0,2.20454,3685.03,2936.44)">
            <g transform="matrix(1.04965,0,0,0.952266,-10435.9,-3026.16)">
                <path d="M11104.6,3725.5L11086,3706.97C11083.8,3704.77 11080.3,3704.77 11078.1,3706.97C11075.9,3709.17 11075.9,3712.74 11078.1,3714.94L11096.6,3733.47L11078.1,3752C11075.9,3754.2 11075.9,3757.77 11078.1,3759.97C11080.3,3762.16 11083.8,3762.16 11086,3759.97L11104.6,3741.44L11123.1,3759.97C11125.3,3762.16 11128.9,3762.16 11131.1,3759.97C11133.3,3757.77 11133.3,3754.2 11131.1,3752L11112.5,3733.47L11131.1,3714.94C11133.3,3712.74 11133.3,3709.17 11131.1,3706.97C11128.9,3704.77 11125.3,3704.77 11123.1,3706.97L11104.6,3725.5Z" style="fill:white;"/>
            </g>
        </g>
    </g>
</svg>
