<?xml version="1.0" encoding="UTF-8" standalone="no"?>
<!DOCTYPE svg PUBLIC "-//W3C//DTD SVG 1.1//EN" "http://www.w3.org/Graphics/SVG/1.1/DTD/svg11.dtd">
<svg width="100%" height="100%" viewBox="0 0 138 139" version="1.1" xmlns="http://www.w3.org/2000/svg" xmlns:xlink="http://www.w3.org/1999/xlink" xml:space="preserve" xmlns:serif="http://www.serif.com/" style="fill-rule:evenodd;clip-rule:evenodd;stroke-linejoin:round;stroke-miterlimit:2;">
    <g transform="matrix(1,0,0,1,-6058.29,-3743.08)">
        <g transform="matrix(2,0,0,2.20454,3685.03,2936.44)">
            <g transform="matrix(0.536127,0,0,0.486385,-4216.96,-1390.63)">
                <g transform="matrix(1,0,0,1,0.655647,-16.8314)">
                    <path d="M10190.9,3658.23L10174.9,3674.18C10174.1,3675 10173.2,3675.64 10172.2,3676.12L10172.2,3736.61C10172.2,3737.35 10171.6,3737.95 10170.9,3737.95L10098.9,3737.95C10098.1,3737.95 10097.5,3737.35 10097.5,3736.61L10097.5,3663.41C10097.5,3662.67 10098.1,3662.07 10098.9,3662.07L10159.3,3662.07C10159.7,3661.37 10160.2,3660.71 10160.8,3660.11L10176.4,3644.56C10176.2,3644.56 10176.1,3644.56 10176,3644.56L10093.2,3644.56C10085,3644.56 10078.3,3651.26 10078.3,3659.51L10078.3,3742.24C10078.3,3750.5 10085,3757.2 10093.2,3757.2L10176,3757.2C10184.2,3757.2 10190.9,3750.5 10190.9,3742.24L10190.9,3659.51C10190.9,3659.08 10190.9,3658.65 10190.9,3658.23Z" style="fill:white;"/>
                </g>
                <g transform="matrix(0.969655,0,0,0.969655,309.175,94.4728)">
                    <path d="M10184.5,3638.51L10128.6,3694.41C10125.3,3697.73 10125.3,3703.12 10128.6,3706.43C10131.9,3709.75 10137.3,3709.75 10140.6,3706.43L10196.5,3650.54L10184.5,3638.51ZM10188.3,3634.66L10200.4,3646.69L10205.5,3641.51C10208.9,3638.19 10208.9,3632.8 10205.5,3629.48C10202.2,3626.16 10196.8,3626.16 10193.5,3629.48L10188.3,3634.66Z" style="fill:white;"/>
                </g>
            </g>
        </g>
    </g>
</svg>
