<?xml version="1.0" encoding="UTF-8" standalone="no"?>
<!DOCTYPE svg PUBLIC "-//W3C//DTD SVG 1.1//EN" "http://www.w3.org/Graphics/SVG/1.1/DTD/svg11.dtd">
<svg width="100%" height="100%" viewBox="0 0 181 153" version="1.1" xmlns="http://www.w3.org/2000/svg" xmlns:xlink="http://www.w3.org/1999/xlink" xml:space="preserve" xmlns:serif="http://www.serif.com/" style="fill-rule:evenodd;clip-rule:evenodd;stroke-linejoin:round;stroke-miterlimit:2;">
    <g transform="matrix(1,0,0,1,-6894.62,-2499.44)">
        <g transform="matrix(2,0,0,2.20454,3685.03,2936.44)">
            <g transform="matrix(1,0,0,0.894294,328.567,-336.952)">
                <g transform="matrix(0.680338,-0.0891332,0,0.438932,-5594.03,-295.136)">
                    <path d="M10203.4,3114.83C10203.4,3104.16 10198,3095.5 10191.3,3095.5L10110.4,3095.5C10103.7,3095.5 10098.3,3104.16 10098.3,3114.83L10098.3,3208.8C10098.3,3219.47 10103.7,3228.13 10110.4,3228.13L10191.3,3228.13C10198,3228.13 10203.4,3219.47 10203.4,3208.8L10203.4,3114.83Z" style="fill:rgb(0,34,192);"/>
                </g>
                <g transform="matrix(0.557304,-0.0730142,0,0.359555,-4345.14,-207.783)">
                    <path d="M10203.4,3114.83C10203.4,3104.16 10198,3095.5 10191.3,3095.5L10110.4,3095.5C10103.7,3095.5 10098.3,3104.16 10098.3,3114.83L10098.3,3208.8C10098.3,3219.47 10103.7,3228.13 10110.4,3228.13L10191.3,3228.13C10198,3228.13 10203.4,3219.47 10203.4,3208.8L10203.4,3114.83Z" style="fill:rgb(120,223,249);"/>
                </g>
                <g transform="matrix(0.680338,-0.0891332,0,0.438932,-5575.06,-283.161)">
                    <path d="M10203.4,3114.83C10203.4,3104.16 10198,3095.5 10191.3,3095.5L10110.4,3095.5C10103.7,3095.5 10098.3,3104.16 10098.3,3114.83L10098.3,3208.8C10098.3,3219.47 10103.7,3228.13 10110.4,3228.13L10191.3,3228.13C10198,3228.13 10203.4,3219.47 10203.4,3208.8L10203.4,3114.83Z" style="fill:rgb(0,34,192);"/>
                </g>
                <g transform="matrix(0.557304,-0.0730142,0,0.359555,-4326.16,-195.807)">
                    <path d="M10203.4,3114.83C10203.4,3104.16 10198,3095.5 10191.3,3095.5L10110.4,3095.5C10103.7,3095.5 10098.3,3104.16 10098.3,3114.83L10098.3,3208.8C10098.3,3219.47 10103.7,3228.13 10110.4,3228.13L10191.3,3228.13C10198,3228.13 10203.4,3219.47 10203.4,3208.8L10203.4,3114.83Z" style="fill:rgb(120,223,249);"/>
                </g>
            </g>
        </g>
    </g>
</svg>
