<?xml version="1.0" encoding="UTF-8" standalone="no"?>
<!DOCTYPE svg PUBLIC "-//W3C//DTD SVG 1.1//EN" "http://www.w3.org/Graphics/SVG/1.1/DTD/svg11.dtd">
<svg width="100%" height="100%" viewBox="0 0 144 146" version="1.1" xmlns="http://www.w3.org/2000/svg" xmlns:xlink="http://www.w3.org/1999/xlink" xml:space="preserve" xmlns:serif="http://www.serif.com/" style="fill-rule:evenodd;clip-rule:evenodd;stroke-linejoin:round;stroke-miterlimit:2;">
    <g transform="matrix(1,0,0,1,-6339.92,-4030.21)">
        <g transform="matrix(2,0,0,2.20454,3685.03,2936.44)">
            <g transform="matrix(0.536127,0,0,0.486385,-4322.34,-1261.99)">
                <g transform="matrix(0.825944,0,0,0.825944,2437.82,646.976)">
                    <path d="M9969.73,3659.51C9969.73,3651.26 9963.03,3644.56 9954.77,3644.56L9872.04,3644.56C9863.79,3644.56 9857.09,3651.26 9857.09,3659.51L9857.09,3742.24C9857.09,3750.5 9863.79,3757.2 9872.04,3757.2L9954.77,3757.2C9963.03,3757.2 9969.73,3750.5 9969.73,3742.24L9969.73,3659.51ZM9951,3663.41C9951,3662.67 9950.4,3662.07 9949.66,3662.07L9877.67,3662.07C9876.93,3662.07 9876.34,3662.67 9876.34,3663.41L9876.34,3736.61C9876.34,3737.35 9876.93,3737.95 9877.67,3737.95L9949.66,3737.95C9950.4,3737.95 9951,3737.35 9951,3736.61L9951,3663.41Z" style="fill:white;"/>
                </g>
                <g>
                    <g transform="matrix(1,0,0,1,0.655647,-16.8314)">
                        <path d="M10563,3724.56L10563,3708.66L10554.5,3708.66C10553.9,3708.66 10553.4,3708.17 10553.4,3707.56L10553.4,3647.09C10553.4,3646.49 10553.9,3645.99 10554.5,3645.99L10613.9,3645.99C10614.6,3645.99 10615,3646.49 10615,3647.09L10615,3657.22L10630.5,3657.22L10630.5,3643.87C10630.5,3637.06 10625,3631.53 10618.2,3631.53L10549.8,3631.53C10543,3631.53 10537.5,3637.06 10537.5,3643.87L10537.5,3712.21C10537.5,3719.03 10543,3724.56 10549.8,3724.56L10563,3724.56Z" style="fill:white;"/>
                    </g>
                    <g transform="matrix(1.3362,0,0,1.3362,-3552.37,-1269.03)">
                        <circle cx="10564.5" cy="3718.62" r="5.944" style="fill:white;"/>
                    </g>
                    <g transform="matrix(1.30113,0,0,1.30113,-3122.32,-1197.9)">
                        <circle cx="10564.5" cy="3718.62" r="5.944" style="fill:white;"/>
                    </g>
                </g>
            </g>
        </g>
    </g>
</svg>
