<?xml version="1.0" encoding="UTF-8" standalone="no"?>
<!DOCTYPE svg PUBLIC "-//W3C//DTD SVG 1.1//EN" "http://www.w3.org/Graphics/SVG/1.1/DTD/svg11.dtd">
<svg width="100%" height="100%" viewBox="0 0 182 175" version="1.1" xmlns="http://www.w3.org/2000/svg" xmlns:xlink="http://www.w3.org/1999/xlink" xml:space="preserve" xmlns:serif="http://www.serif.com/" style="fill-rule:evenodd;clip-rule:evenodd;stroke-linejoin:round;stroke-miterlimit:2;">
    <g transform="matrix(1,0,0,1,-7180.84,-1915.41)">
        <g transform="matrix(2,0,0,2.20454,3685.03,2936.44)">
            <g transform="matrix(1,0,0,0.894294,595.37,-269.786)">
                <g transform="matrix(0.522251,0,0,0.543875,-3978.86,-1624.28)">
                    <path d="M9999.61,2605.4C9999.61,2596.31 9992.04,2588.93 9982.7,2588.93L9842.46,2588.93C9833.13,2588.93 9825.55,2596.31 9825.55,2605.4L9825.55,2735.08C9825.55,2744.17 9833.13,2751.55 9842.46,2751.55L9982.7,2751.55C9992.04,2751.55 9999.61,2744.17 9999.61,2735.08L9999.61,2605.4Z" style="fill:rgb(60,224,246);"/>
                </g>
                <g transform="matrix(0.435848,0,0,0.444127,-3122.06,-1358.15)">
                    <path d="M9999.61,2605.4C9999.61,2596.31 9992.2,2588.93 9983.07,2588.93L9842.1,2588.93C9832.97,2588.93 9825.55,2596.31 9825.55,2605.4L9825.55,2735.08C9825.55,2744.17 9832.97,2751.55 9842.1,2751.55L9983.07,2751.55C9992.2,2751.55 9999.61,2744.17 9999.61,2735.08L9999.61,2605.4Z" style="fill:rgb(81,100,219);"/>
                </g>
                <g transform="matrix(0.536127,0,0,0.543875,-4241.03,-1756.42)">
                    <path d="M10117.9,2868.05C10095.3,2890.65 10089.3,2915.35 10110.9,2943.54C10135.5,2971.08 10164.8,2963.12 10186.6,2937.88C10163.5,2940.17 10143.6,2937.2 10131.1,2922.15C10119.2,2905.78 10114.6,2887.78 10117.9,2868.05Z" style="fill:rgb(94,223,255);"/>
                </g>
            </g>
        </g>
    </g>
</svg>
