<?xml version="1.0" encoding="UTF-8" standalone="no"?>
<!DOCTYPE svg PUBLIC "-//W3C//DTD SVG 1.1//EN" "http://www.w3.org/Graphics/SVG/1.1/DTD/svg11.dtd">
<svg width="100%" height="100%" viewBox="0 0 121 121" version="1.1" xmlns="http://www.w3.org/2000/svg" xmlns:xlink="http://www.w3.org/1999/xlink" xml:space="preserve" xmlns:serif="http://www.serif.com/" style="fill-rule:evenodd;clip-rule:evenodd;stroke-linejoin:round;stroke-miterlimit:2;">
    <g transform="matrix(1,0,0,1,-6638.08,-3755.83)">
        <g transform="matrix(2,0,0,2.20454,3685.03,2936.44)">
            <g transform="matrix(-1.02583,0,0,0.930654,12809.8,-2991.15)">
                <path d="M11047.9,3623.9C11047.9,3618.11 11043.2,3613.41 11037.4,3613.41L10999.6,3613.41C10993.8,3613.41 10989.1,3618.11 10989.1,3623.9L10989.1,3661.79C10989.1,3667.58 10993.8,3672.28 10999.6,3672.28L11037.4,3672.28C11043.2,3672.28 11047.9,3667.58 11047.9,3661.79L11047.9,3623.9ZM11019.5,3666.89L11019.5,3618.8L11004,3618.8C10999.3,3618.8 10995.5,3622.63 10995.5,3627.36L10995.5,3658.32C10995.5,3663.05 10999.3,3666.89 11004,3666.89L11019.5,3666.89Z" style="fill:white;"/>
            </g>
        </g>
    </g>
</svg>
