<?xml version="1.0" encoding="UTF-8" standalone="no"?>
<!DOCTYPE svg PUBLIC "-//W3C//DTD SVG 1.1//EN" "http://www.w3.org/Graphics/SVG/1.1/DTD/svg11.dtd">
<svg width="100%" height="100%" viewBox="0 0 183 174" version="1.1" xmlns="http://www.w3.org/2000/svg" xmlns:xlink="http://www.w3.org/1999/xlink" xml:space="preserve" xmlns:serif="http://www.serif.com/" style="fill-rule:evenodd;clip-rule:evenodd;stroke-linejoin:round;stroke-miterlimit:2;">
    <g transform="matrix(1,0,0,1,-6033.82,-1915.53)">
        <g transform="matrix(2,0,0,2.20454,3685.03,2936.44)">
            <g transform="matrix(0.536127,0,0,0.486385,-4713.68,-1722.29)">
                <g transform="matrix(0.773975,0,0,0.773975,3377.88,585.114)">
                    <path d="M9999.61,2614.86C9999.61,2600.55 9988,2588.93 9973.68,2588.93L9851.48,2588.93C9837.17,2588.93 9825.55,2600.55 9825.55,2614.86L9825.55,2725.62C9825.55,2739.93 9837.17,2751.55 9851.48,2751.55L9973.68,2751.55C9988,2751.55 9999.61,2739.93 9999.61,2725.62L9999.61,2614.86Z" style="fill:rgb(88,218,218);"/>
                </g>
                <g transform="matrix(0.773975,0,0,0.773975,3396.02,603.253)">
                    <path d="M9999.61,2614.86C9999.61,2600.55 9988,2588.93 9973.68,2588.93L9851.48,2588.93C9837.17,2588.93 9825.55,2600.55 9825.55,2614.86L9825.55,2725.62C9825.55,2739.93 9837.17,2751.55 9851.48,2751.55L9973.68,2751.55C9988,2751.55 9999.61,2739.93 9999.61,2725.62L9999.61,2614.86Z" style="fill:rgb(91,189,227);"/>
                </g>
                <g transform="matrix(0.773975,0,0,0.773975,3413.56,620.8)">
                    <path d="M9999.61,2614.86C9999.61,2600.55 9988,2588.93 9973.68,2588.93L9851.48,2588.93C9837.17,2588.93 9825.55,2600.55 9825.55,2614.86L9825.55,2725.62C9825.55,2739.93 9837.17,2751.55 9851.48,2751.55L9973.68,2751.55C9988,2751.55 9999.61,2739.93 9999.61,2725.62L9999.61,2614.86Z" style="fill:rgb(56,101,198);"/>
                </g>
                <g transform="matrix(1,0,0,1,0.655647,-16.8314)">
                    <path d="M11073.5,2663.85L11073.5,2721.67L11055.4,2721.67C11054.2,2721.64 11053.4,2721.8 11053.1,2722.96C11053,2723.53 11053.6,2724.42 11054.6,2725.46L11083.4,2759.46L11113.2,2724.27C11113.6,2723.71 11113.8,2723.34 11113.8,2722.78C11113.6,2721.93 11113,2721.63 11111.9,2721.67L11093.4,2721.67L11093.4,2663.85L11073.5,2663.85Z" style="fill:rgb(105,232,232);"/>
                </g>
            </g>
        </g>
    </g>
</svg>
