<?xml version="1.0" encoding="UTF-8" standalone="no"?>
<!DOCTYPE svg PUBLIC "-//W3C//DTD SVG 1.1//EN" "http://www.w3.org/Graphics/SVG/1.1/DTD/svg11.dtd">
<svg width="100%" height="100%" viewBox="0 0 118 121" version="1.1" xmlns="http://www.w3.org/2000/svg" xmlns:xlink="http://www.w3.org/1999/xlink" xml:space="preserve" xmlns:serif="http://www.serif.com/" style="fill-rule:evenodd;clip-rule:evenodd;stroke-linejoin:round;stroke-miterlimit:2;">
    <g transform="matrix(1,0,0,1,-7212.98,-3756.56)">
        <g transform="matrix(2,0,0,2.20454,3685.03,2936.44)">
            <g transform="matrix(1.95785,0,0,1.75089,-1929.55,-822.389)">
                <g transform="matrix(0.536127,0,0,0.543875,-4006.1,-1334.3)">
                    <path d="M11042.6,3707.58L11010.5,3707.58C11008,3707.58 11006,3709.58 11006,3712.03C11006,3714.49 11008,3716.48 11010.5,3716.48L11038.2,3716.48L11038.2,3744.19C11038.2,3746.65 11040.2,3748.64 11042.6,3748.64C11045.1,3748.64 11047.1,3746.65 11047.1,3744.19L11047.1,3712.03C11047.1,3710.81 11046.6,3709.7 11045.8,3708.89L11045.8,3708.88C11045,3708.08 11043.9,3707.58 11042.6,3707.58Z" style="fill:white;"/>
                </g>
                <g transform="matrix(-0.536127,0,0,-0.543875,7809.16,2729.73)">
                    <path d="M11042.6,3707.58L11010.5,3707.58C11008,3707.58 11006,3709.58 11006,3712.03C11006,3714.49 11008,3716.48 11010.5,3716.48L11038.2,3716.48L11038.2,3744.19C11038.2,3746.65 11040.2,3748.64 11042.6,3748.64C11045.1,3748.64 11047.1,3746.65 11047.1,3744.19L11047.1,3712.03C11047.1,3710.81 11046.6,3709.7 11045.8,3708.89L11045.8,3708.88C11045,3708.08 11043.9,3707.58 11042.6,3707.58Z" style="fill:white;"/>
                </g>
            </g>
        </g>
    </g>
</svg>
