<?xml version="1.0" encoding="UTF-8" standalone="no"?>
<!DOCTYPE svg PUBLIC "-//W3C//DTD SVG 1.1//EN" "http://www.w3.org/Graphics/SVG/1.1/DTD/svg11.dtd">
<svg width="100%" height="100%" viewBox="0 0 182 166" version="1.1" xmlns="http://www.w3.org/2000/svg" xmlns:xlink="http://www.w3.org/1999/xlink" xml:space="preserve" xmlns:serif="http://www.serif.com/" style="fill-rule:evenodd;clip-rule:evenodd;stroke-linejoin:round;stroke-miterlimit:2;">
    <g transform="matrix(1,0,0,1,-7180.84,-3066.53)">
        <g transform="matrix(2,0,0,2.20454,3685.03,2936.44)">
            <g transform="matrix(1,0,0,0.894294,471.966,-411.396)">
                <g transform="matrix(0.536127,0,0,0.543875,-4117.62,-1283.7)">
                    <path d="M10229.8,3362.64C10229.8,3352.92 10221.9,3345.03 10212.2,3345.03L10136.6,3345.03L10115,3327.42L10077.8,3327.42C10068.1,3327.42 10060.2,3335.31 10060.2,3345.02L10060.2,3377.34C10062.6,3373.04 10064.6,3372.39 10070.9,3372.2L10213.2,3372.13C10221.2,3372.28 10227.1,3372.03 10229.8,3377.31L10229.8,3362.64Z" style="fill:rgb(80,191,194);"/>
                </g>
                <g transform="matrix(0.536127,0,0,0.543875,-4117.62,-1283.7)">
                    <path d="M10060.2,3382.86L10060.2,3463.95C10060.2,3473.66 10068.1,3481.55 10077.8,3481.55L10212.2,3481.55C10221.9,3481.55 10229.8,3473.66 10229.8,3463.95L10229.8,3382.86C10229.8,3377.96 10225.8,3373.99 10220.9,3373.99L10069.1,3373.99C10064.2,3373.99 10060.2,3377.96 10060.2,3382.86Z" style="fill:rgb(80,191,194);"/>
                </g>
            </g>
        </g>
    </g>
</svg>
