<?xml version="1.0" encoding="UTF-8" standalone="no"?>
<!DOCTYPE svg PUBLIC "-//W3C//DTD SVG 1.1//EN" "http://www.w3.org/Graphics/SVG/1.1/DTD/svg11.dtd">
<svg width="100%" height="100%" viewBox="0 0 181 176" version="1.1" xmlns="http://www.w3.org/2000/svg" xmlns:xlink="http://www.w3.org/1999/xlink" xml:space="preserve" xmlns:serif="http://www.serif.com/" style="fill-rule:evenodd;clip-rule:evenodd;stroke-linejoin:round;stroke-miterlimit:2;">
    <g transform="matrix(1,0,0,1,-6608.01,-1914.43)">
        <g transform="matrix(2,0,0,2.20454,3685.03,2936.44)">
            <g transform="matrix(1,0,0,0.894294,-433.305,-147.551)">
                <g transform="matrix(0.536127,0,0,0.543875,-4241.03,-1765.67)">
                    <path d="M11597.2,2659.05L11525.5,2613.07L11520.2,2616.54L11460.5,2659.05L11460.5,2760.27L11509.7,2760.27L11509.8,2711.71L11547.9,2711.71L11548,2760.27L11597.2,2760.27L11597.2,2659.05Z" style="fill:rgb(164,192,255);"/>
                </g>
                <g transform="matrix(0.536127,0,0,0.543875,-4241.03,-1765.67)">
                    <path d="M11460.5,2688.83L11529.1,2634.15L11529.1,2618.84L11460.5,2674.46L11460.5,2688.83Z" style="fill:rgb(137,169,242);"/>
                </g>
                <g transform="matrix(-0.536127,0,0,0.543875,8121.14,-1765.67)">
                    <path d="M11461,2686.51L11529.1,2634.15L11529.1,2618.84L11461.1,2673.98L11461,2686.51Z" style="fill:rgb(156,189,244);"/>
                </g>
                <g transform="matrix(0.536127,0,0,0.543875,-4241.03,-1765.67)">
                    <path d="M11529.1,2620.91L11462,2675.91C11457.5,2679.61 11450.8,2678.95 11447.1,2674.44C11443.4,2669.93 11444.1,2663.27 11448.6,2659.57L11522.4,2599.07C11526.5,2595.68 11532.5,2595.95 11536.3,2599.49L11609.6,2659.57C11614.1,2663.27 11614.7,2669.93 11611,2674.44C11607.3,2678.95 11600.7,2679.61 11596.2,2675.91L11529.1,2620.91Z" style="fill:rgb(255,132,175);"/>
                </g>
            </g>
        </g>
    </g>
</svg>
