<?xml version="1.0" encoding="UTF-8" standalone="no"?>
<!DOCTYPE svg PUBLIC "-//W3C//DTD SVG 1.1//EN" "http://www.w3.org/Graphics/SVG/1.1/DTD/svg11.dtd">
<svg width="100%" height="100%" viewBox="0 0 155 117" version="1.1" xmlns="http://www.w3.org/2000/svg" xmlns:xlink="http://www.w3.org/1999/xlink" xml:space="preserve" xmlns:serif="http://www.serif.com/" style="fill-rule:evenodd;clip-rule:evenodd;stroke-linejoin:round;stroke-miterlimit:2;">
    <g transform="matrix(1,0,0,1,-6621.11,-4044.73)">
        <g transform="matrix(2,0,0,2.20454,3685.03,2936.44)">
            <g transform="matrix(0.536127,0,0,0.486385,-4300.91,-1271.05)">
                <path d="M10904.7,3661.7C10904.7,3653.52 10898.1,3646.87 10889.9,3646.87L10775.3,3646.87C10767.1,3646.87 10760.4,3653.52 10760.4,3661.7L10760.4,3740.47C10760.4,3748.66 10767.1,3755.3 10775.3,3755.3L10889.9,3755.3C10898.1,3755.3 10904.7,3748.66 10904.7,3740.47L10904.7,3661.7ZM10824.5,3722.84L10771.4,3722.84L10771.4,3741.96L10824.5,3741.96L10824.5,3722.84ZM10890.4,3722.84L10837.3,3722.84L10837.3,3741.96L10890.4,3741.96L10890.4,3722.84ZM10824.5,3691.45L10771.4,3691.45L10771.4,3710.56L10824.5,3710.56L10824.5,3691.45ZM10890.4,3691.45L10837.3,3691.45L10837.3,3710.56L10890.4,3710.56L10890.4,3691.45ZM10824.5,3659.24L10771.4,3659.24L10771.4,3678.35L10824.5,3678.35L10824.5,3659.24ZM10890.4,3659.24L10837.3,3659.24L10837.3,3678.35L10890.4,3678.35L10890.4,3659.24Z" style="fill:white;"/>
            </g>
        </g>
    </g>
</svg>
