<?xml version="1.0" encoding="UTF-8" standalone="no"?>
<!DOCTYPE svg PUBLIC "-//W3C//DTD SVG 1.1//EN" "http://www.w3.org/Graphics/SVG/1.1/DTD/svg11.dtd">
<svg width="100%" height="100%" viewBox="0 0 121 121" version="1.1" xmlns="http://www.w3.org/2000/svg" xmlns:xlink="http://www.w3.org/1999/xlink" xml:space="preserve" xmlns:serif="http://www.serif.com/" style="fill-rule:evenodd;clip-rule:evenodd;stroke-linejoin:round;stroke-miterlimit:2;">
    <g transform="matrix(1,0,0,1,-6351.43,-3755.83)">
        <g transform="matrix(2,0,0,2.20454,3685.03,2936.44)">
            <g transform="matrix(1,0,0,0.894294,290.161,-244.703)">
                <g transform="matrix(0.536127,0,0,0.543875,-4241.61,-1292.94)">
                    <path d="M9969.73,3659.51C9969.73,3651.26 9963.03,3644.56 9954.77,3644.56L9872.04,3644.56C9863.79,3644.56 9857.09,3651.26 9857.09,3659.51L9857.09,3742.24C9857.09,3750.5 9863.79,3757.2 9872.04,3757.2L9954.77,3757.2C9963.03,3757.2 9969.73,3750.5 9969.73,3742.24L9969.73,3659.51ZM9951,3663.41C9951,3662.67 9950.4,3662.07 9949.66,3662.07L9877.67,3662.07C9876.93,3662.07 9876.34,3662.67 9876.34,3663.41L9876.34,3736.61C9876.34,3737.35 9876.93,3737.95 9877.67,3737.95L9949.66,3737.95C9950.4,3737.95 9951,3737.35 9951,3736.61L9951,3663.41Z" style="fill:white;"/>
                </g>
                <g transform="matrix(0.223283,0,0,0.22651,-1140.32,-118.354)">
                    <path d="M9969.99,3659.25C9969.99,3650.99 9963.29,3644.3 9955.03,3644.3L9872.3,3644.3C9864.05,3644.3 9857.35,3650.99 9857.35,3659.25L9857.35,3741.99C9857.35,3750.24 9864.05,3756.93 9872.3,3756.93L9955.03,3756.93C9963.29,3756.93 9969.99,3750.24 9969.99,3741.99L9969.99,3659.25Z" style="fill:white;"/>
                </g>
            </g>
        </g>
    </g>
</svg>
