<?xml version="1.0" encoding="UTF-8" standalone="no"?>
<!DOCTYPE svg PUBLIC "-//W3C//DTD SVG 1.1//EN" "http://www.w3.org/Graphics/SVG/1.1/DTD/svg11.dtd">
<svg width="100%" height="100%" viewBox="0 0 187 175" version="1.1" xmlns="http://www.w3.org/2000/svg" xmlns:xlink="http://www.w3.org/1999/xlink" xml:space="preserve" xmlns:serif="http://www.serif.com/" style="fill-rule:evenodd;clip-rule:evenodd;stroke-linejoin:round;stroke-miterlimit:2;">
    <g transform="matrix(1,0,0,1,-6605.14,-1628.77)">
        <g transform="matrix(2,0,0,2.20454,3685.03,2936.44)">
            <g transform="matrix(1,0,0,0.894294,183.812,-282.465)">
                <g transform="matrix(0.536127,0,0,0.543875,-3991.5,-1755.49)">
                    <path d="M9999.61,2614.86C9999.61,2600.55 9988,2588.93 9973.68,2588.93L9851.48,2588.93C9837.17,2588.93 9825.55,2600.55 9825.55,2614.86L9825.55,2725.62C9825.55,2739.93 9837.17,2751.55 9851.48,2751.55L9973.68,2751.55C9988,2751.55 9999.61,2739.93 9999.61,2725.62L9999.61,2614.86Z" style="fill:rgb(11,218,167);"/>
                </g>
                <g transform="matrix(0.536127,0,0,0.543875,-4241.38,-1756.51)">
                    <g transform="matrix(1,0,0,1,0.655647,-7.59781)">
                        <path d="M10401.8,2730.11L10401.8,2710.9L10411.3,2710.9C10426.1,2709.73 10434.4,2702.57 10434.4,2687.85L10434.4,2644.6C10433.4,2633.28 10427.7,2626.74 10415.9,2626.17L10335.3,2626.17C10321,2626.38 10314.6,2633.56 10314.9,2646.66L10314.9,2689.79C10316.3,2702.65 10323.5,2708.2 10334.2,2709.17L10355.3,2709.17L10396.2,2731.72C10401.2,2734.69 10402,2732.97 10401.8,2730.11Z" style="fill:rgb(233,230,245);"/>
                    </g>
                    <g transform="matrix(1,0,0,1,0.655647,0.168634)">
                        <path d="M10401.8,2730.11L10401.8,2710.9L10411.3,2710.9C10426.1,2709.73 10434.4,2702.57 10434.4,2687.85L10434.4,2644.6C10433.4,2633.28 10427.7,2626.74 10415.9,2626.17L10335.3,2626.17C10321,2626.38 10314.6,2633.56 10314.9,2646.66L10314.9,2689.79C10316.3,2702.65 10323.5,2708.2 10334.2,2709.17L10355.3,2709.17L10396.2,2731.72C10401.2,2734.69 10402,2732.97 10401.8,2730.11Z" style="fill:white;"/>
                    </g>
                </g>
                <g transform="matrix(0.537672,0,0,0.543875,-4256.89,-1756.91)">
                    <path d="M10417.3,2681.54C10417.3,2678.39 10414.8,2675.84 10411.6,2675.84L10337,2675.84C10333.8,2675.84 10331.3,2678.39 10331.3,2681.54C10331.3,2684.68 10333.8,2687.24 10337,2687.24L10411.6,2687.24C10414.8,2687.24 10417.3,2684.68 10417.3,2681.54Z" style="fill:rgb(0,99,139);"/>
                </g>
                <g transform="matrix(0.537672,0,0,0.543875,-4256.89,-1772.01)">
                    <path d="M10417.3,2681.54C10417.3,2678.39 10414.8,2675.84 10411.6,2675.84L10337,2675.84C10333.8,2675.84 10331.3,2678.39 10331.3,2681.54C10331.3,2684.68 10333.8,2687.24 10337,2687.24L10411.6,2687.24C10414.8,2687.24 10417.3,2684.68 10417.3,2681.54Z" style="fill:rgb(0,99,139);"/>
                </g>
            </g>
        </g>
    </g>
</svg>
