<?xml version="1.0" encoding="UTF-8" standalone="no"?>
<!DOCTYPE svg PUBLIC "-//W3C//DTD SVG 1.1//EN" "http://www.w3.org/Graphics/SVG/1.1/DTD/svg11.dtd">
<svg width="100%" height="100%" viewBox="0 0 187 175" version="1.1" xmlns="http://www.w3.org/2000/svg" xmlns:xlink="http://www.w3.org/1999/xlink" xml:space="preserve" xmlns:serif="http://www.serif.com/" style="fill-rule:evenodd;clip-rule:evenodd;stroke-linejoin:round;stroke-miterlimit:2;">
    <g transform="matrix(1,0,0,1,-6318.5,-3061.97)">
        <g transform="matrix(2,0,0,2.20454,3685.03,2936.44)">
            <g transform="matrix(1,0,0,0.894294,-449.665,-322.344)">
                <g transform="matrix(0.536127,0,0,0.543875,-3501.34,-983.938)">
                    <path d="M9999.61,2614.86C9999.61,2600.55 9988,2588.93 9973.68,2588.93L9851.48,2588.93C9837.17,2588.93 9825.55,2600.55 9825.55,2614.86L9825.55,2725.62C9825.55,2739.93 9837.17,2751.55 9851.48,2751.55L9973.68,2751.55C9988,2751.55 9999.61,2739.93 9999.61,2725.62L9999.61,2614.86Z" style="fill:rgb(133,64,255);"/>
                </g>
                <g transform="matrix(0.536127,-0.0426045,0,0.51238,-4241.03,-937.455)">
                    <rect x="11259.9" y="3669.94" width="9.119" height="65.396" style="fill:rgb(250,162,250);"/>
                </g>
                <g transform="matrix(0.536127,-0.0426045,0,0.543875,-4207.8,-1069.17)">
                    <circle cx="11253.7" cy="3733.34" r="17.601" style="fill:rgb(250,162,250);"/>
                </g>
                <g transform="matrix(0.536127,0,0,0.543875,-4241.03,-1533.71)">
                    <path d="M11315.7,3688.31C11320.3,3687.31 11323.5,3685.18 11324.4,3681.09L11324.9,3691.28L11317.5,3690.11L11315.4,3689L11315.7,3688.31Z" style="fill:rgb(250,162,250);"/>
                </g>
                <g transform="matrix(0.536127,-0.0426045,-3.00534e-18,0.47655,-4206.56,-818.874)">
                    <rect x="11259.9" y="3669.94" width="9.119" height="65.396" style="fill:rgb(250,162,250);"/>
                </g>
                <g transform="matrix(4.31593,-1.33427,3.62247e-18,-0.242795,-46801.2,16379.1)">
                    <rect x="11259.9" y="3669.94" width="9.119" height="65.396" style="fill:rgb(250,162,250);"/>
                </g>
                <g transform="matrix(0.536127,-0.0426045,0,0.543875,-4242.26,-1054.3)">
                    <circle cx="11253.7" cy="3733.34" r="17.601" style="fill:rgb(250,162,250);"/>
                </g>
                <g transform="matrix(0.536127,0,0,0.543875,-4241.03,-1533.71)">
                    <path d="M11251.4,3715.66C11255.5,3714.17 11258.8,3712.03 11259.9,3708.38L11260.5,3719.09L11253.2,3718.1L11251.3,3715.81" style="fill:rgb(250,162,250);"/>
                </g>
            </g>
        </g>
    </g>
</svg>
