<?xml version="1.0" encoding="UTF-8" standalone="no"?>
<!DOCTYPE svg PUBLIC "-//W3C//DTD SVG 1.1//EN" "http://www.w3.org/Graphics/SVG/1.1/DTD/svg11.dtd">
<svg width="100%" height="100%" viewBox="0 0 138 163" version="1.1" xmlns="http://www.w3.org/2000/svg" xmlns:xlink="http://www.w3.org/1999/xlink" xml:space="preserve" xmlns:serif="http://www.serif.com/" style="fill-rule:evenodd;clip-rule:evenodd;stroke-linejoin:round;stroke-miterlimit:2;">
    <g transform="matrix(1,0,0,1,-6629.6,-2494.51)">
        <g transform="matrix(2,0,0,2.20454,3685.03,2936.44)">
            <g transform="matrix(0.536127,0,0,0.486385,-3929.54,-1696.84)">
                <g transform="matrix(1.02244,0,0,1,-249.319,-18.9662)">
                    <path d="M10203.4,3111.16C10203.4,3102.51 10196.6,3095.5 10188.1,3095.5L10113.6,3095.5C10105.2,3095.5 10098.3,3102.51 10098.3,3111.16L10098.3,3212.47C10098.3,3221.11 10105.2,3228.13 10113.6,3228.13L10188.1,3228.13C10196.6,3228.13 10203.4,3221.11 10203.4,3212.47L10203.4,3111.16Z" style="fill:rgb(255,139,107);"/>
                </g>
                <g transform="matrix(1.02244,0,0,1,-228.349,0.168634)">
                    <path d="M10203.4,3111.16C10203.4,3102.51 10196.6,3095.5 10188.1,3095.5L10113.6,3095.5C10105.2,3095.5 10098.3,3102.51 10098.3,3111.16L10098.3,3212.47C10098.3,3221.11 10105.2,3228.13 10113.6,3228.13L10188.1,3228.13C10196.6,3228.13 10203.4,3221.11 10203.4,3212.47L10203.4,3111.16Z" style="fill:rgb(231,229,208);"/>
                </g>
                <g transform="matrix(1,0,0,1,1.63074,-0.603433)">
                    <path d="M10188.6,3136.51C10188.6,3133.46 10186.1,3130.98 10183,3130.98L10114.4,3130.98C10111.4,3130.98 10108.9,3133.46 10108.9,3136.51C10108.9,3139.57 10111.4,3142.05 10114.4,3142.05L10183,3142.05C10186.1,3142.05 10188.6,3139.57 10188.6,3136.51Z" style="fill:rgb(44,69,185);"/>
                </g>
                <g transform="matrix(1,0,0,1,1.63074,25.4686)">
                    <path d="M10188.6,3136.51C10188.6,3133.46 10186.1,3130.98 10183,3130.98L10114.4,3130.98C10111.4,3130.98 10108.9,3133.46 10108.9,3136.51C10108.9,3139.57 10111.4,3142.05 10114.4,3142.05L10183,3142.05C10186.1,3142.05 10188.6,3139.57 10188.6,3136.51Z" style="fill:rgb(44,69,185);"/>
                </g>
                <g transform="matrix(1,0,0,1,1.63074,51.5406)">
                    <path d="M10188.6,3136.51C10188.6,3133.46 10186.1,3130.98 10183,3130.98L10114.4,3130.98C10111.4,3130.98 10108.9,3133.46 10108.9,3136.51C10108.9,3139.57 10111.4,3142.05 10114.4,3142.05L10183,3142.05C10186.1,3142.05 10188.6,3139.57 10188.6,3136.51Z" style="fill:rgb(44,69,185);"/>
                </g>
            </g>
        </g>
    </g>
</svg>
