<?xml version="1.0" encoding="UTF-8" standalone="no"?>
<!DOCTYPE svg PUBLIC "-//W3C//DTD SVG 1.1//EN" "http://www.w3.org/Graphics/SVG/1.1/DTD/svg11.dtd">
<svg width="100%" height="100%" viewBox="0 0 178 159" version="1.1" xmlns="http://www.w3.org/2000/svg" xmlns:xlink="http://www.w3.org/1999/xlink" xml:space="preserve" xmlns:serif="http://www.serif.com/" style="fill-rule:evenodd;clip-rule:evenodd;stroke-linejoin:round;stroke-miterlimit:2;">
    <g transform="matrix(1,0,0,1,-6896.18,-2783.31)">
        <g transform="matrix(2,0,0,2.20454,3685.03,2936.44)">
            <g transform="matrix(1,0,0,0.894294,-289.44,-205.39)">
                <g transform="matrix(0.575647,0.454144,-0.394729,0.418122,-3424.12,-6337.91)">
                    <path d="M11529,3122.93C11529,3107.58 11519.3,3095.11 11507.3,3095.11L11448.7,3095.11C11436.8,3095.11 11427.1,3107.58 11427.1,3122.93L11427.1,3178.59C11427.1,3193.95 11436.8,3206.41 11448.7,3206.41L11507.3,3206.41C11519.3,3206.41 11529,3193.95 11529,3178.59L11529,3122.93Z" style="fill:rgb(82,209,252);"/>
                </g>
                <g transform="matrix(0.195916,0.154564,-0.138153,0.14634,123.764,-2059.78)">
                    <path d="M11529,3122.93C11529,3107.58 11519,3095.11 11506.7,3095.11L11449.4,3095.11C11437.1,3095.11 11427.1,3107.58 11427.1,3122.93L11427.1,3178.59C11427.1,3193.95 11437.1,3206.41 11449.4,3206.41L11506.7,3206.41C11519,3206.41 11529,3193.95 11529,3178.59L11529,3122.93Z"/>
                </g>
                <g transform="matrix(0.195916,0.154564,-0.138153,0.14634,145.714,-2042.87)">
                    <path d="M11529,3122.93C11529,3107.58 11519,3095.11 11506.7,3095.11L11449.4,3095.11C11437.1,3095.11 11427.1,3107.58 11427.1,3122.93L11427.1,3178.59C11427.1,3193.95 11437.1,3206.41 11449.4,3206.41L11506.7,3206.41C11519,3206.41 11529,3193.95 11529,3178.59L11529,3122.93Z"/>
                </g>
                <g transform="matrix(0.195916,0.154564,-0.138153,0.14634,124.836,-2060.86)">
                    <path d="M11529,3122.93C11529,3107.58 11519,3095.11 11506.7,3095.11L11449.4,3095.11C11437.1,3095.11 11427.1,3107.58 11427.1,3122.93L11427.1,3178.59C11427.1,3193.95 11437.1,3206.41 11449.4,3206.41L11506.7,3206.41C11519,3206.41 11529,3193.95 11529,3178.59L11529,3122.93Z" style="fill:rgb(254,71,149);"/>
                </g>
                <g transform="matrix(0.195916,0.154564,-0.138153,0.14634,146.786,-2043.95)">
                    <path d="M11529,3122.93C11529,3107.58 11519,3095.11 11506.7,3095.11L11449.4,3095.11C11437.1,3095.11 11427.1,3107.58 11427.1,3122.93L11427.1,3178.59C11427.1,3193.95 11437.1,3206.41 11449.4,3206.41L11506.7,3206.41C11519,3206.41 11529,3193.95 11529,3178.59L11529,3122.93Z" style="fill:rgb(255,140,107);"/>
                </g>
                <g transform="matrix(0.423767,0.334322,-0.138153,0.14634,-2499.93,-4096.98)">
                    <path d="M11529,3122.93C11529,3107.58 11524.4,3095.11 11518.7,3095.11L11437.4,3095.11C11431.7,3095.11 11427.1,3107.58 11427.1,3122.93L11427.1,3178.59C11427.1,3193.95 11431.7,3206.41 11437.4,3206.41L11518.7,3206.41C11524.4,3206.41 11529,3193.95 11529,3178.59L11529,3122.93Z"/>
                </g>
                <g transform="matrix(0.423767,0.334322,-0.138153,0.14634,-2498.85,-4098.06)">
                    <path d="M11529,3122.93C11529,3107.58 11524.4,3095.11 11518.7,3095.11L11437.4,3095.11C11431.7,3095.11 11427.1,3107.58 11427.1,3122.93L11427.1,3178.59C11427.1,3193.95 11431.7,3206.41 11437.4,3206.41L11518.7,3206.41C11524.4,3206.41 11529,3193.95 11529,3178.59L11529,3122.93Z" style="fill:rgb(150,92,255);"/>
                </g>
            </g>
        </g>
    </g>
</svg>
