<?xml version="1.0" encoding="UTF-8" standalone="no"?>
<!DOCTYPE svg PUBLIC "-//W3C//DTD SVG 1.1//EN" "http://www.w3.org/Graphics/SVG/1.1/DTD/svg11.dtd">
<svg width="100%" height="100%" viewBox="0 0 187 175" version="1.1" xmlns="http://www.w3.org/2000/svg" xmlns:xlink="http://www.w3.org/1999/xlink" xml:space="preserve" xmlns:serif="http://www.serif.com/" style="fill-rule:evenodd;clip-rule:evenodd;stroke-linejoin:round;stroke-miterlimit:2;">
    <g transform="matrix(1,0,0,1,-6605.14,-3061.97)">
        <g transform="matrix(2,0,0,2.20454,3685.03,2936.44)">
            <g transform="matrix(1,0,0,0.894294,-432.9,-323.007)">
                <g transform="matrix(0.536127,0,0,0.543875,-3374.79,-983.197)">
                    <path d="M9999.61,2614.86C9999.61,2600.55 9988,2588.93 9973.68,2588.93L9851.48,2588.93C9837.17,2588.93 9825.55,2600.55 9825.55,2614.86L9825.55,2725.62C9825.55,2739.93 9837.17,2751.55 9851.48,2751.55L9973.68,2751.55C9988,2751.55 9999.61,2739.93 9999.61,2725.62L9999.61,2614.86Z" style="fill:rgb(84,86,160);"/>
                </g>
                <g transform="matrix(1.6099,0,0,1.63317,1901,429.927)">
                    <path d="M27,43.8L21,43.8C20.533,43.8 20.133,43.667 19.8,43.4C19.467,43.133 19.283,42.783 19.25,42.35L18.55,37.6C17.95,37.4 17.283,37.092 16.55,36.675C15.817,36.258 15.2,35.833 14.7,35.4L10.35,37.4C9.95,37.6 9.525,37.617 9.075,37.45C8.625,37.283 8.283,37 8.05,36.6L5.05,31.15C4.783,30.75 4.717,30.342 4.85,29.925C4.983,29.508 5.233,29.183 5.6,28.95L9.45,26C9.417,25.733 9.383,25.4 9.35,25C9.317,24.6 9.3,24.233 9.3,23.9C9.3,23.633 9.317,23.308 9.35,22.925C9.383,22.542 9.417,22.183 9.45,21.85L5.6,19C5.2,18.767 4.95,18.433 4.85,18C4.75,17.567 4.817,17.15 5.05,16.75L8.05,11.4C8.317,11.033 8.658,10.758 9.075,10.575C9.492,10.392 9.9,10.4 10.3,10.6L14.55,12.55C15.083,12.117 15.717,11.692 16.45,11.275C17.183,10.858 17.867,10.533 18.5,10.3L19.25,5.6C19.283,5.167 19.467,4.817 19.8,4.55C20.133,4.283 20.533,4.15 21,4.15L27,4.15C27.433,4.15 27.825,4.283 28.175,4.55C28.525,4.817 28.733,5.167 28.8,5.6L29.45,10.35C30.117,10.583 30.808,10.9 31.525,11.3C32.242,11.7 32.85,12.117 33.35,12.55L37.7,10.6C38.067,10.4 38.475,10.383 38.925,10.55C39.375,10.717 39.717,10.983 39.95,11.35L42.95,16.7C43.183,17.1 43.25,17.525 43.15,17.975C43.05,18.425 42.817,18.767 42.45,19L38.45,21.85C38.483,22.217 38.525,22.592 38.575,22.975C38.625,23.358 38.65,23.7 38.65,24C38.65,24.267 38.625,24.592 38.575,24.975C38.525,25.358 38.5,25.733 38.5,26.1L42.4,28.95C42.767,29.217 43,29.558 43.1,29.975C43.2,30.392 43.133,30.8 42.9,31.2L39.9,36.65C39.633,37.05 39.283,37.325 38.85,37.475C38.417,37.625 38.017,37.583 37.65,37.35L33.25,35.4C32.717,35.833 32.108,36.258 31.425,36.675C30.742,37.092 30.1,37.383 29.5,37.55L28.8,42.35C28.733,42.783 28.525,43.133 28.175,43.4C27.825,43.667 27.433,43.8 27,43.8ZM23.9,30.3C25.667,30.3 27.167,29.683 28.4,28.45C29.633,27.217 30.25,25.717 30.25,23.95C30.25,22.183 29.633,20.683 28.4,19.45C27.167,18.217 25.667,17.6 23.9,17.6C22.133,17.6 20.633,18.217 19.4,19.45C18.167,20.683 17.55,22.183 17.55,23.95C17.55,25.717 18.167,27.217 19.4,28.45C20.633,29.683 22.133,30.3 23.9,30.3Z" style="fill:rgb(198,203,239);fill-rule:nonzero;"/>
                </g>
            </g>
        </g>
    </g>
</svg>
