<?xml version="1.0" encoding="UTF-8" standalone="no"?>
<!DOCTYPE svg PUBLIC "-//W3C//DTD SVG 1.1//EN" "http://www.w3.org/Graphics/SVG/1.1/DTD/svg11.dtd">
<svg width="100%" height="100%" viewBox="0 0 187 175" version="1.1" xmlns="http://www.w3.org/2000/svg" xmlns:xlink="http://www.w3.org/1999/xlink" xml:space="preserve" xmlns:serif="http://www.serif.com/" style="fill-rule:evenodd;clip-rule:evenodd;stroke-linejoin:round;stroke-miterlimit:2;">
    <g transform="matrix(1,0,0,1,-7178.43,-2202.05)">
        <g transform="matrix(2,0,0,2.20454,3685.03,2936.44)">
            <g transform="matrix(1,0,0,0.894294,-22.7146,-140.977)">
                <g transform="matrix(0.536127,0,0,0.543875,-3498.33,-1622.92)">
                    <path d="M9999.61,2614.86C9999.61,2600.55 9988,2588.93 9973.68,2588.93L9851.48,2588.93C9837.17,2588.93 9825.55,2600.55 9825.55,2614.86L9825.55,2725.62C9825.55,2739.93 9837.17,2751.55 9851.48,2751.55L9973.68,2751.55C9988,2751.55 9999.61,2739.93 9999.61,2725.62L9999.61,2614.86Z" style="fill:rgb(227,85,145);"/>
                </g>
                <g transform="matrix(0.363651,0,0,0.118907,-1789.19,-459.466)">
                    <path d="M9999.61,2643.49C9999.61,2613.38 9991.73,2588.93 9982.03,2588.93L9843.14,2588.93C9833.43,2588.93 9825.55,2613.38 9825.55,2643.49L9825.55,2696.99C9825.55,2727.1 9833.43,2751.55 9843.14,2751.55L9982.03,2751.55C9991.73,2751.55 9999.61,2727.1 9999.61,2696.99L9999.61,2643.49Z" style="fill:rgb(43,43,43);"/>
                </g>
                <g transform="matrix(0.363651,0,0,0.309181,-1789.19,-1007.66)">
                    <path d="M9999.61,2597.57C9999.61,2592.8 9996.37,2588.93 9992.37,2588.93L9832.8,2588.93C9828.8,2588.93 9825.55,2592.8 9825.55,2597.57L9825.55,2742.91C9825.55,2747.68 9828.8,2751.55 9832.8,2751.55L9992.37,2751.55C9996.37,2751.55 9999.61,2747.68 9999.61,2742.91L9999.61,2597.57Z" style="fill:rgb(43,43,43);"/>
                </g>
                <g transform="matrix(0.279822,0,0,0.0536389,-957.689,-323.508)">
                    <path d="M9999.61,2670.24C9999.61,2625.36 9992.73,2588.93 9984.25,2588.93L9840.92,2588.93C9832.44,2588.93 9825.55,2625.36 9825.55,2670.24C9825.55,2715.12 9832.44,2751.55 9840.92,2751.55L9984.25,2751.55C9992.73,2751.55 9999.61,2715.12 9999.61,2670.24Z" style="fill:rgb(63,196,239);"/>
                </g>
                <g transform="matrix(0.279822,0,0,0.0536389,-957.689,-309.507)">
                    <path d="M9999.61,2670.24C9999.61,2625.36 9992.73,2588.93 9984.25,2588.93L9840.92,2588.93C9832.44,2588.93 9825.55,2625.36 9825.55,2670.24C9825.55,2715.12 9832.44,2751.55 9840.92,2751.55L9984.25,2751.55C9992.73,2751.55 9999.61,2715.12 9999.61,2670.24Z" style="fill:rgb(109,234,183);"/>
                </g>
                <g transform="matrix(0.520203,0,0,0.535621,-4059.13,-1608.63)">
                    <circle cx="11260.3" cy="2738.28" r="13.076" style="fill:white;"/>
                </g>
                <g transform="matrix(0.520203,0,0,0.535621,-4059.13,-1662.96)">
                    <circle cx="11260.3" cy="2738.28" r="13.076" style="fill:rgb(239,47,136);"/>
                </g>
                <g transform="matrix(0.520203,0,0,0.535621,-4042.19,-1608.63)">
                    <circle cx="11260.3" cy="2738.28" r="13.076" style="fill:white;"/>
                </g>
                <g transform="matrix(0.520203,0,0,0.535621,-4025.11,-1608.63)">
                    <circle cx="11260.3" cy="2738.28" r="13.076" style="fill:white;"/>
                </g>
            </g>
        </g>
    </g>
</svg>
