<?xml version="1.0" encoding="UTF-8" standalone="no"?>
<!DOCTYPE svg PUBLIC "-//W3C//DTD SVG 1.1//EN" "http://www.w3.org/Graphics/SVG/1.1/DTD/svg11.dtd">
<svg width="100%" height="100%" viewBox="0 0 187 175" version="1.1" xmlns="http://www.w3.org/2000/svg" xmlns:xlink="http://www.w3.org/1999/xlink" xml:space="preserve" xmlns:serif="http://www.serif.com/" style="fill-rule:evenodd;clip-rule:evenodd;stroke-linejoin:round;stroke-miterlimit:2;">
    <g transform="matrix(1,0,0,1,-6891.78,-1915.41)">
        <g transform="matrix(2,0,0,2.20454,3685.03,2936.44)">
            <g transform="matrix(0.536127,0,0,0.486385,-3664.72,-1840.62)">
                <g transform="matrix(1,0,0,1,0.655647,243.138)">
                    <path d="M9999.61,2605.4C9999.61,2596.31 9992.23,2588.93 9983.14,2588.93L9842.03,2588.93C9832.93,2588.93 9825.55,2596.31 9825.55,2605.4L9825.55,2735.08C9825.55,2744.17 9832.93,2751.55 9842.03,2751.55L9983.14,2751.55C9992.23,2751.55 9999.61,2744.17 9999.61,2735.08L9999.61,2605.4Z" style="fill:rgb(81,100,219);"/>
                </g>
                <g transform="matrix(1,0,0,1,0.655647,0.168634)">
                    <path d="M9877.39,2871.89C9877.35,2871.54 9877.34,2871.18 9877.34,2870.82C9877.34,2865.31 9881.81,2860.83 9887.32,2860.83C9888.83,2860.83 9890.26,2861.17 9891.54,2861.77L9891.58,2861.74L9961.94,2899.27C9965.6,2900.75 9968.2,2904.34 9968.2,2908.54C9968.2,2912.85 9965.46,2916.53 9961.62,2917.92L9893.46,2968.53L9893.44,2968.52C9891.75,2969.83 9889.63,2970.62 9887.32,2970.62C9882.01,2970.62 9877.67,2966.47 9877.35,2961.24L9877.34,2961.23L9877.34,2871.93L9877.39,2871.89Z" style="fill:rgb(126,238,229);"/>
                </g>
            </g>
        </g>
    </g>
</svg>
